HIERARCHY
ROOT Hips
{
  OFFSET 0 0 0
  CHANNELS 6 Xposition Yposition Zposition Zrotation Yrotation Xrotation
  JOINT LeftThigh
  {
    OFFSET 8.409438 0 -5.917753
    CHANNELS 3 Zrotation Yrotation Xrotation
    JOINT LeftLeg
    {
      OFFSET 0 0 -42.358652
      CHANNELS 3 Zrotation Yrotation Xrotation
      JOINT LeftFoot
      {
        OFFSET 0 0 -39.357303
        CHANNELS 3 Zrotation Yrotation Xrotation
      }
    }
  }
  JOINT RightThigh
  {
    OFFSET -8.409438 0 -5.917753
    CHANNELS 3 Zrotation Yrotation Xrotation
    JOINT RightLeg
    {
      OFFSET 0 0 -42.358652
      CHANNELS 3 Zrotation Yrotation Xrotation
      JOINT RightFoot
      {
        OFFSET 0 0 -39.357303
        CHANNELS 3 Zrotation Yrotation Xrotation
      }
    }
  }
  JOINT SpineLow
  {
    OFFSET 0 0 4.719101
    CHANNELS 3 Zrotation Yrotation Xrotation
    JOINT SpineMid
    {
      OFFSET 0 0 12.899191
      CHANNELS 3 Zrotation Yrotation Xrotation
      JOINT Chest
      {
        OFFSET 0 0 12.899191
        CHANNELS 3 Zrotation Yrotation Xrotation
        JOINT LeftShoulder
        {
          OFFSET 7.550562 1.41573 9.438202
          CHANNELS 3 Zrotation Yrotation Xrotation
          JOINT LeftArm
          {
            OFFSET 9.155056 0 4.247191
            CHANNELS 3 Zrotation Yrotation Xrotation
            JOINT LeftForearm
            {
              OFFSET 0 0 25.771955
              CHANNELS 3 Zrotation Yrotation Xrotation
              JOINT LeftHand
              {
                OFFSET 0 0 25.197169
                CHANNELS 3 Zrotation Yrotation Xrotation
              }
            }
          }
        }
        JOINT RightShoulder
        {
          OFFSET -7.550562 1.41573 9.438202
          CHANNELS 3 Zrotation Yrotation Xrotation
          JOINT RightArm
          {
            OFFSET -9.155056 0 4.247191
            CHANNELS 3 Zrotation Yrotation Xrotation
            JOINT RightForearm
            {
              OFFSET 0 0 -25.771955
              CHANNELS 3 Zrotation Yrotation Xrotation
              JOINT RightHand
              {
                OFFSET 0 0 -25.197169
                CHANNELS 3 Zrotation Yrotation Xrotation
              }
            }
          }
        }
        JOINT Neck
        {
          OFFSET 0 0 15.101124
          CHANNELS 3 Zrotation Yrotation Xrotation
          JOINT Head
          {
            OFFSET 0 0 11.325843
            CHANNELS 3 Zrotation Yrotation Xrotation
            End Site
            {
              OFFSET 0 0 14.157303
            }
          }
        }
      }
    }
  }
}
MOTION
Frames: 7
Frame Time: 0.0
0.0  93.25843  0.0  -111.049002  36.809463  168.348856  38.765266  -47.077361  -50.949677  -9.59488  9.856968  9.233831  -0.941376  -5.180354  -0.563341  -0.130846  20.878587  -41.84727  -1.787679  28.037621  59.886497  2.421866  -3.661965  -6.827374  0.514657  -3.488187  -1.0853  1.573934  -9.508594  -3.060621  1.573934  -9.508595  -3.060621  -31.195351  28.113664  3.818322  127.858403  49.777381  -151.656513  -22.020045  -1.144392  66.079675  45.270529  0.304538  3.982235  -0.434792  -11.067613  19.258954  58.612725  61.599635  5.844367  -34.442446  -21.615046  -93.056088  71.294574  15.348402  12.684613  -19.7651  -4.715657  10.845938  -14.737276  -3.893728  7.986972  
0.0  93.25843  0.0  -110.777319  37.304942  168.475023  38.496553  -46.980288  -50.397094  -9.383427  9.868047  9.268405  -1.304971  -4.869932  -0.453107  -0.897986  18.195552  -42.529122  0.435694  29.782023  62.87303  3.208899  -3.373847  -6.819358  0.3977  -3.457712  -1.030049  1.242766  -9.431946  -2.890803  1.242766  -9.431946  -2.890803  -31.108718  28.106843  3.576959  127.444009  50.483992  -151.838041  -22.006795  -1.15141  65.770308  45.261651  -0.027106  4.15771  -0.470354  -10.908896  18.873236  59.570684  60.136126  6.830868  -33.242463  -21.522409  -95.577817  71.556497  15.283628  12.575436  -19.511637  -4.722781  10.891351  -14.546753  -3.89591  8.022523  
0.0  93.25843  0.0  -110.27183  37.815351  168.873536  38.484615  -46.651468  -49.983021  -9.462988  9.930025  9.39884  -1.34935  -4.833367  -0.454147  -1.046449  15.647259  -43.006396  2.351141  31.074956  65.849952  3.885264  -3.023106  -6.86398  0.347614  -3.435096  -1.013277  1.101548  -9.372672  -2.836884  1.101548  -9.372672  -2.836884  -31.250129  28.116794  3.434021  126.868925  51.127  -152.078931  -21.82476  -1.452399  65.552864  45.261231  -0.449915  4.342366  -0.84834  -10.77508  18.564799  60.941865  59.081306  7.517803  -32.39035  -21.518991  -97.293402  71.771972  15.227086  12.470128  -19.386887  -4.692383  10.98331  -14.453242  -3.873738  8.093413  
0.0  93.25843  0.0  -110.563936  38.354926  167.955166  37.413153  -46.418174  -48.716858  -9.979145  10.022376  9.481386  -1.307116  -4.731099  -0.464826  0.116549  13.08165  -43.816577  4.346007  32.85919  70.948625  4.309603  -2.565105  -6.963059  0.200641  -3.393333  -0.912216  0.681175  -9.266103  -2.537123  0.681175  -9.266103  -2.537123  -31.569557  28.182694  3.407225  126.263809  51.682042  -152.372636  -21.599221  -1.848067  65.494122  45.301329  -0.898971  4.443317  -1.456262  -10.652119  18.451115  61.986578  57.553444  8.64506  -31.728984  -21.407554  -98.740009  71.442888  14.993946  12.152975  -19.359615  -4.615926  11.135054  -14.433442  -3.820666  8.210071  
0.0  93.25843  0.0  -110.011201  38.937768  168.446317  37.460428  -45.812924  -48.302308  -10.415444  10.057933  9.635927  -1.286071  -4.697041  -0.428861  1.329826  11.440869  -44.197131  4.8069  33.238153  74.271186  4.45093  -2.00595  -7.125804  0.184538  -3.371401  -0.936882  0.639475  -9.206516  -2.602299  0.639475  -9.206515  -2.602299  -31.9429  28.240541  3.428086  125.818219  52.204208  -152.604019  -21.409158  -2.154389  65.565799  45.297487  -1.355391  4.483374  -2.165636  -10.579035  18.348153  63.393805  56.439446  9.591607  -30.798889  -21.367518  -100.568408  71.666992  14.966468  11.917355  -19.345101  -4.563079  11.278788  -14.422781  -3.785299  8.31983  
0.0  93.25843  0.0  -110.732393  39.58068  167.041066  35.346586  -45.712002  -46.343645  -10.718719  10.096917  9.650753  -1.294775  -4.669188  -0.199168  1.962846  10.333339  -43.724192  4.775531  33.314601  77.743943  4.431743  -1.424184  -7.205249  -0.038324  -3.316086  -0.809311  0.00686  -9.064301  -2.21976  0.00686  -9.0643  -2.21976  -32.23154  28.270433  3.401694  125.703502  52.761804  -152.61963  -21.335296  -2.224475  65.702126  45.239895  -1.836895  4.536276  -2.86489  -10.517012  18.267189  64.021707  54.850504  10.961833  -29.270146  -21.097327  -103.347605  71.844562  14.937307  11.366764  -19.262806  -4.515848  11.363501  -14.36156  -3.750963  8.385532  
0.0  93.25843  0.0  -110.271637  40.241259  167.605523  34.928526  -45.273723  -45.758583  -10.811107  10.189587  9.867638  -1.21404  -4.623366  -0.119255  3.151634  9.215857  -44.571465  4.317395  33.355351  80.967018  4.442462  -0.816589  -7.146792  -0.112453  -3.303468  -0.842618  -0.192741  -9.032353  -2.301012  -0.192741  -9.032353  -2.301012  -32.455229  28.308594  3.33294  125.885858  53.337432  -152.463877  -21.335444  -2.120763  65.919121  45.174118  -2.319616  4.602269  -3.597724  -10.338111  18.253463  65.357215  53.726825  11.671155  -28.545371  -20.474265  -104.88196  72.240108  14.714044  10.965571  -19.112825  -4.472946  11.407016  -14.249752  -3.717252  8.420584  
